<svg xmlns="http://www.w3.org/2000/svg" viewBox="0 0 22.4 24.46"><defs><style>.cls-1{fill:#fff;}</style></defs><title>trashCan</title><g id="Capa_2" data-name="Capa 2"><g id="Capa_1-2" data-name="Capa 1"><g id="Ojw1cp.tif"><path class="cls-1" d="M17.91,24.46H4.49l-.27,0a2.4,2.4,0,0,1-1.55-1.06A3.59,3.59,0,0,1,2,21.2q0-7.45,0-14.9V6.12H.49A.47.47,0,0,1,0,5.64c0-.36,0-.71,0-1.07A.46.46,0,0,1,.4,4.1H5.28a.18.18,0,0,0,.2-.14c.34-.83.67-1.66,1-2.47A2.29,2.29,0,0,1,8.72,0q2.48,0,5,0a2.3,2.3,0,0,1,2.19,1.46c.36.81.69,1.63,1,2.45a.22.22,0,0,0,.24.16h4.69a.5.5,0,0,1,.56.55c0,.32,0,.65,0,1a.47.47,0,0,1-.52.51H20.36v.21q0,7.36,0,14.71c0,.13,0,.25,0,.38a3.52,3.52,0,0,1-.49,1.69,2.59,2.59,0,0,1-1.41,1.24A5,5,0,0,1,17.91,24.46Zm.42-18.34H4.07v.18q0,7.39,0,14.77c0,.07,0,.15,0,.22a1.84,1.84,0,0,0,.28.89.42.42,0,0,0,.4.22H17.61a.48.48,0,0,0,.47-.28,2,2,0,0,0,.24-1q0-7.41,0-14.83Zm-3.57-2,0-.07L14,2.28A.38.38,0,0,0,13.64,2H8.78a.4.4,0,0,0-.41.27L7.69,3.95l0,.13Z"/><path class="cls-1" d="M8.14,14.27q0,2.24,0,4.48c0,.44-.17.61-.61.61H6.66a.5.5,0,0,1-.55-.55q0-4.54,0-9.08a.5.5,0,0,1,.56-.56h.92a.49.49,0,0,1,.56.56Q8.15,12,8.14,14.27Z"/><path class="cls-1" d="M14.26,14.25q0-2.25,0-4.5c0-.41.18-.58.58-.58h.92a.49.49,0,0,1,.53.53q0,4.56,0,9.12a.49.49,0,0,1-.54.54h-.95a.49.49,0,0,1-.55-.55Q14.26,16.53,14.26,14.25Z"/><path class="cls-1" d="M10.18,14.27q0-2.24,0-4.48c0-.45.17-.61.61-.61h.85a.5.5,0,0,1,.57.57q0,1.2,0,2.39,0,3.31,0,6.61a.87.87,0,0,1-.05.33.46.46,0,0,1-.46.28h-1a.49.49,0,0,1-.51-.56q0-1.71,0-3.41Q10.18,14.83,10.18,14.27Z"/></g></g></g></svg>