<svg xmlns="http://www.w3.org/2000/svg" viewBox="0 0 19.23 19.22"><defs><style>.cls-1{fill:#fff;}</style></defs><title>cross</title><g id="Capa_2" data-name="Capa 2"><g id="Capa_1-2" data-name="Capa 1"><path class="cls-1" d="M9.43,4.8,13.28.95a3.24,3.24,0,0,1,4.58,0l.41.41a3.24,3.24,0,0,1,0,4.58L14.42,9.8l3.86,3.86a3.24,3.24,0,0,1,0,4.58h0a3.24,3.24,0,0,1-4.58,0L9.84,14.38l-3.9,3.9a3.24,3.24,0,0,1-4.58,0l-.41-.41a3.24,3.24,0,0,1,0-4.58l3.9-3.9L1.07,5.61A3.24,3.24,0,0,1,1.07,1h0A3.24,3.24,0,0,1,5.65,1Z"/></g></g></svg>