<svg xmlns="http://www.w3.org/2000/svg" viewBox="0 0 24.33 23.92"><defs><style>.cls-1{fill:#fff;}</style></defs><title>+Filled</title><g id="Capa_2" data-name="Capa 2"><g id="Capa_1-2" data-name="Capa 1"><path class="cls-1" d="M8.58,8.69V3.24A3.24,3.24,0,0,1,11.82,0h.58a3.24,3.24,0,0,1,3.24,3.24V8.69h5.46a3.24,3.24,0,0,1,3.24,3.24h0a3.24,3.24,0,0,1-3.24,3.24H15.64v5.51a3.24,3.24,0,0,1-3.24,3.24h-.58a3.24,3.24,0,0,1-3.24-3.24V15.17H3.24A3.24,3.24,0,0,1,0,11.93H0A3.24,3.24,0,0,1,3.24,8.69Z"/></g></g></svg>