<svg xmlns="http://www.w3.org/2000/svg" viewBox="0 0 91.11 84.52"><defs><style>.cls-1{fill:#fff;stroke:#fff;stroke-miterlimit:10;}</style></defs><title>hearthFilled</title><g id="Capa_2" data-name="Capa 2"><g id="Capa_1-2" data-name="Capa 1"><g id="QLDHWu.tif"><path class="cls-1" d="M45.48,83.81l-2-2.06-1-1.11L32.74,70.33C24.64,61.73,16.25,52.85,8,44.12a26.4,26.4,0,0,1-7-13.4,25,25,0,0,1,4.49-20A23.59,23.59,0,0,1,18.7,1.56a27.81,27.81,0,0,1,8.82-.9,26.13,26.13,0,0,1,9.91,2.47,23.31,23.31,0,0,1,6.83,5l.69.73.65.68,0,0a42.1,42.1,0,0,1,3-3A24.71,24.71,0,0,1,60.91.87a25.72,25.72,0,0,1,21,5.75,24.34,24.34,0,0,1,8.4,15.18,25.44,25.44,0,0,1-7,22.1C74.73,53,66,62.28,57.55,71.22L47.34,82l-.29.29-.12.11ZM25.89,4.61a23.52,23.52,0,0,0-6.15.8A19.68,19.68,0,0,0,8.72,13,21.19,21.19,0,0,0,4.92,30a22.17,22.17,0,0,0,6,11.39C19.16,50.1,27.54,59,35.65,67.58L45.38,77.9l.18.19,9.08-9.61c8.45-8.94,17.18-18.18,25.74-27.3a21.61,21.61,0,0,0,6-18.77A20.44,20.44,0,0,0,79.27,9.65,21.34,21.34,0,0,0,67.13,4.59a21,21,0,0,0-5.56.23A20.77,20.77,0,0,0,51.25,9.55c-.94.81-1.8,1.72-2.72,2.68l-.95,1-.11.22-1.27,2.44-1.93-2c-.84-.85-1.56-1.61-2.25-2.34l-.68-.72a19.32,19.32,0,0,0-5.66-4.13,21.85,21.85,0,0,0-8.4-2.09Q26.59,4.61,25.89,4.61Z"/><path class="cls-1" d="M45.48,83.81l-2-2.06-1-1.11L32.74,70.33C24.64,61.73,16.25,52.85,8,44.12a26.4,26.4,0,0,1-7-13.4,25,25,0,0,1,4.49-20A23.59,23.59,0,0,1,18.7,1.56a27.81,27.81,0,0,1,8.82-.9,26.13,26.13,0,0,1,9.91,2.47,23.31,23.31,0,0,1,6.83,5l.69.73.65.68,0,0a42.1,42.1,0,0,1,3-3A24.71,24.71,0,0,1,60.91.87a25.72,25.72,0,0,1,21,5.75,24.34,24.34,0,0,1,8.4,15.18,25.44,25.44,0,0,1-7,22.1C74.73,53,66,62.28,57.55,71.22L47.34,82l-.29.29-.12.11Z"/></g></g></g></svg>