<svg xmlns="http://www.w3.org/2000/svg" viewBox="0 0 24.8 23.21"><defs><style>.cls-1{fill:#fff;stroke:#fff;stroke-miterlimit:10;}</style></defs><title>hearthBorder</title><g id="Capa_2" data-name="Capa 2"><g id="Capa_1-2" data-name="Capa 1"><g id="QLDHWu.tif"><path class="cls-1" d="M12.38,22.5,11.86,22l-.28-.29L9,18.95,2.48,12A7,7,0,0,1,.63,8.48,6.62,6.62,0,0,1,1.82,3.19,6.23,6.23,0,0,1,5.31.78,7.35,7.35,0,0,1,7.64.54a6.9,6.9,0,0,1,2.62.65,6.16,6.16,0,0,1,1.8,1.31l.18.19.17.18h0a11.13,11.13,0,0,1,.79-.78A6.53,6.53,0,0,1,16.45.6,6.59,6.59,0,0,1,18.2.53,6.67,6.67,0,0,1,22,2.12a6.43,6.43,0,0,1,2.22,4A6.72,6.72,0,0,1,22.37,12c-2.26,2.41-4.57,4.85-6.8,7.21L12.87,22l-.08.08,0,0ZM7.21,1.59a6.21,6.21,0,0,0-1.62.21,5.2,5.2,0,0,0-2.91,2,5.6,5.6,0,0,0-1,4.48,5.85,5.85,0,0,0,1.58,3l6.54,6.93,2.57,2.72,0,0,2.4-2.54c2.23-2.36,4.54-4.8,6.8-7.21a5.71,5.71,0,0,0,1.57-5A5.4,5.4,0,0,0,21.3,2.92,5.63,5.63,0,0,0,18.1,1.58a5.55,5.55,0,0,0-1.47.06A5.48,5.48,0,0,0,13.9,2.89c-.25.21-.48.45-.72.71l-.25.26,0,.06-.33.64L12.06,4l-.59-.62-.18-.19A5.1,5.1,0,0,0,9.79,2.15,5.77,5.77,0,0,0,7.58,1.6Z"/><path class="cls-1" d="M12.38,22.5,11.86,22l-.28-.29L9,18.95,2.48,12A7,7,0,0,1,.63,8.48,6.62,6.62,0,0,1,1.82,3.19,6.23,6.23,0,0,1,5.31.78,7.35,7.35,0,0,1,7.64.54a6.9,6.9,0,0,1,2.62.65,6.16,6.16,0,0,1,1.8,1.31l.18.19.17.18h0a11.13,11.13,0,0,1,.79-.78A6.53,6.53,0,0,1,16.45.6,6.59,6.59,0,0,1,18.2.53,6.67,6.67,0,0,1,22,2.12a6.43,6.43,0,0,1,2.22,4A6.72,6.72,0,0,1,22.37,12c-2.26,2.41-4.57,4.85-6.8,7.21L12.87,22l-.08.08,0,0ZM7.21,1.59a6.21,6.21,0,0,0-1.62.21,5.2,5.2,0,0,0-2.91,2,5.6,5.6,0,0,0-1,4.48,5.85,5.85,0,0,0,1.58,3l6.54,6.93,2.57,2.72,0,0,2.4-2.54c2.23-2.36,4.54-4.8,6.8-7.21a5.71,5.71,0,0,0,1.57-5A5.4,5.4,0,0,0,21.3,2.92,5.63,5.63,0,0,0,18.1,1.58a5.55,5.55,0,0,0-1.47.06A5.48,5.48,0,0,0,13.9,2.89c-.25.21-.48.45-.72.71l-.25.26,0,.06-.33.64L12.06,4l-.59-.62-.18-.19A5.1,5.1,0,0,0,9.79,2.15,5.77,5.77,0,0,0,7.58,1.6Z"/></g></g></g></svg>